{"title":"Bajatey Raho [2013] - DVDSCR - 1CD - XviD","uid":8755105,"size":741735614,"categoryP":"video","categoryS":"movies","magnet":"?xt=urn:btih:16cf808004a1dbf395bb7d391a0b0619c5b51a9a&amp;dn=Bajatey+Raho+%5B2013%5D+-+DVDSCR+-+1CD+-+XviD&amp;tr=udp%3A%2F%2Ftracker.openbittorrent.com%3A80&amp;tr=udp%3A%2F%2Fopen.demonii.com%3A1337&amp;tr=udp%3A%2F%2Ftracker.coppersurfer.tk%3A6969&amp;tr=udp%3A%2F%2Fexodus.desync.com%3A6969","seeders":1,"leechers":0,"uploader":"shailendramaxx","files":-1,"time":1375137833,"description":"General\nComplete name                            : Bajatey Raho (2013) DVD Scr Xvid\nFormat                                   : AVI\nFormat/Info                              : Audio Video Interleave\nFile size                                : 699 MiB\nDuration                                 : 1h 45mn\nOverall bit rate                         : 930 Kbps\n\nVideo\nID                                       : 0\nFormat                                   : MPEG-4 Visual\nFormat profile                           : Advanced Simple@L5\nFormat settings, BVOP                    : 1\nFormat settings, QPel                    : No\nFormat settings, GMC                     : No warppoints\nFormat settings, Matrix                  : Default (H.263)\nMuxing mode                              : Packed bitstream\nCodec ID                                 : XVID\nCodec ID/Hint                            : XviD\nDuration                                 : 1h 45mn\nBit rate                                 : 844 Kbps\nWidth                                    : 640 pixels\nHeight                                   : 272 pixels\nDisplay aspect ratio                     : 2.35:1\nFrame rate                               : 23.976 fps\nColor space                              : YUV\nChroma subsampling                       : 4:2:0\nBit depth                                : 8 bits\nScan type                                : Progressive\nCompression mode                         : Lossy\nBits/(Pixel*Frame)                       : 0.202\nStream size                              : 635 MiB (91%)\nWriting library                          : XviD 1.2.1 (UTC 2008-12-04)\n\nAudio\nID                                       : 1\nFormat                                   : MPEG Audio\nFormat version                           : Version 1\nFormat profile                           : Layer 3\nMode                                     : Joint stereo\nMode extension                           : MS Stereo\nCodec ID                                 : 55\nCodec ID/Hint                            : MP3\nDuration                                 : 1h 45mn\nBit rate mode                            : Constant\nBit rate                                 : 80.0 Kbps\nChannel(s)                               : 2 channels\nSampling rate                            : 32.0 KHz\nCompression mode                         : Lossy\nStream size                              : 60.2 MiB (9%)\nAlignment                                : Aligned on interleaves\nInterleave, duration                     : 167 ms (4.00 video frames)\nInterleave, preload duration             : 216 ms\nTitle                                    : VTS_01_1 Tc0 L2 2ch 48 128 DELAY 0ms\nWriting library                          : LAME3.99r\nEncoding settings                        : -m j -V 4 -q 2 -lowpass 13.5 -b 80\n\nSCREENS:-\n &lt;a href=&quot;\nhttp://myimghost.no-ip.biz/upload/5406.jpg&quot; rel=&quot;nofollow&quot; target=&quot;_NEW&quot;&gt;\nhttp://myimghost.no-ip.biz/upload/5406.jpg&lt;/a&gt;\n &lt;a href=&quot;\nhttp://myimghost.no-ip.biz/upload/74541.jpg&quot; rel=&quot;nofollow&quot; target=&quot;_NEW&quot;&gt;\nhttp://myimghost.no-ip.biz/upload/74541.jpg&lt;/a&gt;\n &lt;a href=&quot;\nhttp://myimghost.no-ip.biz/upload/81428.jpg&quot; rel=&quot;nofollow&quot; target=&quot;_NEW&quot;&gt;\nhttp://myimghost.no-ip.biz/upload/81428.jpg&lt;/a&gt;\n &lt;a href=&quot;\nhttp://myimghost.no-ip.biz/upload/85584.jpg&quot; rel=&quot;nofollow&quot; target=&quot;_NEW&quot;&gt;\nhttp://myimghost.no-ip.biz/upload/85584.jpg&lt;/a&gt;\n &lt;a href=&quot;\nhttp://myimghost.no-ip.biz/upload/90679.jpg&quot; rel=&quot;nofollow&quot; target=&quot;_NEW&quot;&gt;\nhttp://myimghost.no-ip.biz/upload/90679.jpg&lt;/a&gt;\n &lt;a href=&quot;\nhttp://myimghost.no-ip.biz/upload/116850.jpg&quot; rel=&quot;nofollow&quot; target=&quot;_NEW&quot;&gt;\nhttp://myimghost.no-ip.biz/upload/116850.jpg&lt;/a&gt;\n &lt;a href=&quot;\nhttp://myimghost.no-ip.biz/upload/139935.jpg&quot; rel=&quot;nofollow&quot; target=&quot;_NEW&quot;&gt;\nhttp://myimghost.no-ip.biz/upload/139935.jpg&lt;/a&gt;\n &lt;a href=&quot;\nhttp://myimghost.no-ip.biz/upload/77429.jpg&quot; rel=&quot;nofollow&quot; target=&quot;_NEW&quot;&gt;\nhttp://myimghost.no-ip.biz/upload/77429.jpg&lt;/a&gt;\n &lt;a href=&quot;\nhttp://myimghost.no-ip.biz/upload/image&quot; rel=&quot;nofollow&quot; target=&quot;_NEW&quot;&gt;\nhttp://myimghost.no-ip.biz/upload/image&lt;/a&gt; (1).jpg\n &lt;a href=&quot;\nhttp://myimghost.no-ip.biz/upload/image&quot; rel=&quot;nofollow&quot; target=&quot;_NEW&quot;&gt;\nhttp://myimghost.no-ip.biz/upload/image&lt;/a&gt; (2).jpg\n &lt;a href=&quot;\nhttp://myimghost.no-ip.biz/upload/image&quot; rel=&quot;nofollow&quot; target=&quot;_NEW&quot;&gt;\nhttp://myimghost.no-ip.biz/upload/image&lt;/a&gt; (3).jpg\n &lt;a href=&quot;\nhttp://myimghost.no-ip.biz/upload/image.jpg&quot; rel=&quot;nofollow&quot; target=&quot;_NEW&quot;&gt;\nhttp://myimghost.no-ip.biz/upload/image.jpg&lt;/a&gt;\n\n\nSAMPLE INCLUDED\n\nLANGUAGE IS HINDI \n\nIF YOU LIKE THIS UPLOAD THEN PLEASE STOP A MOMENT TO SAY THANKS\n\n********** PLEASE SEED AS LONG AS YOU CAN AFTER DOWNLOAD **********\n                  \n                        THANK YOU !!","torrent":{"xt":"urn:btih:16cf808004a1dbf395bb7d391a0b0619c5b51a9a","amp;dn":"Bajatey+Raho+%5B2013%5D+-+DVDSCR+-+1CD+-+XviD","amp;tr":["udp%3A%2F%2Ftracker.openbittorrent.com%3A80","udp%3A%2F%2Fopen.demonii.com%3A1337","udp%3A%2F%2Ftracker.coppersurfer.tk%3A6969","udp%3A%2F%2Fexodus.desync.com%3A6969"],"infoHash":"16cf808004a1dbf395bb7d391a0b0619c5b51a9a","infoHashBuffer":{"type":"Buffer","data":[22,207,128,128,4,161,219,243,149,187,125,57,26,11,6,25,197,181,26,154]},"announce":[],"urlList":[]}}